<!-- icon666.com - MILLIONS vector ICONS FREE --><svg version="1.1" id="Capa_1" xmlns="http://www.w3.org/2000/svg" xmlns:xlink="http://www.w3.org/1999/xlink" x="0px" y="0px" viewBox="0 0 60 60" style="enable-background:new 0 0 60 60;" xml:space="preserve"><path d="M30.5,0C14.233,0,1,13.233,1,29.5c0,5.146,1.346,10.202,3.896,14.65L0.051,58.684c-0.116,0.349-0.032,0.732,0.219,1 C0.462,59.889,0.728,60,1,60c0.085,0,0.17-0.011,0.254-0.033l15.867-4.175C21.243,57.892,25.86,59,30.5,59 C46.767,59,60,45.767,60,29.5S46.767,0,30.5,0z M48.908,42.895l-1.758,1.759C44.93,46.874,42.453,48,39.79,48c0,0,0,0,0,0 c-3.59,0-7.461-2.05-11.503-6.093L18.093,31.714c-3.188-3.188-5.147-6.285-5.823-9.206c-0.82-3.547,0.215-6.796,3.077-9.657 l1.759-1.759c1.131-1.131,2.96-1.409,4.377-0.659c2.662,1.409,5.42,6.025,5.726,6.547c0.552,0.967,0.721,1.967,0.483,2.824 c-0.182,0.655-0.592,1.189-1.188,1.552c-0.808,0.676-1.755,1.518-1.922,1.732c-1.016,1.499-0.9,2.65,0.409,3.96l7.962,7.962 c1.32,1.321,2.451,1.43,3.974,0.398c0.201-0.157,1.042-1.104,1.718-1.912c0.505-0.835,1.332-1.292,2.338-1.292 c0.659,0,1.36,0.2,2.027,0.58c0.532,0.313,5.149,3.071,6.557,5.732C50.337,39.972,50.073,41.73,48.908,42.895z" fill="#000000" style="fill: rgb(255, 255, 255);"></path></svg>